<svg width="2370" height="582" xmlns="http://www.w3.org/2000/svg" xmlns:xlink="http://www.w3.org/1999/xlink" xml:space="preserve" overflow="hidden"><g transform="translate(-467 -802)"><g><g><g><g><path d="M152.666 32.2289C157.879 30.8333 176.232 76.017 186.633 118.673 189.292 129.574 191.293 137.289 192.636 144.345 195.559 159.828 197.376 176.127 197.876 197.376 197.876 197.376 198.85 251.117 182.709 309.887 181.472 314.39 178.944 323.026 171.361 329.398 161.276 337.877 148.163 337.35 139.948 337.139 139.948 337.139 110.668 336.297 62.4566 338.535 23.3817 340.352 5.18716 348.883 1.73783 342.116-0.184315 338.324 3.87062 332.505 26.3834 307.28 41.7343 290.086 49.3965 281.502 63.0359 267.31 74.6214 255.224 95.0541 232.553 112.538 203.774 121.174 189.555 132.312 168.412 141.317 140.238 150.691 109.72 153.429 82.31 152.587 58.3227 152.06 43.4195 150.296 32.8871 152.666 32.2552Z" fill="#32A2C9" fill-rule="nonzero" fill-opacity="1" transform="matrix(1.00309 0 0 1 471 821.105)"/><path d="M180.998 3.44933C189.45-5.60846 226.234 15.7195 267.968 39.9175 300.092 58.5597 321.183 70.7771 346.381 93.7113 371.554 116.619 386.404 137.078 403.098 160.065 430.587 197.955 445.28 228.13 455.075 248.247 461.737 261.939 465.239 272.102 472.216 292.456 481.3 318.866 481.142 324.448 478.904 328.792 473.585 339.088 458.235 338.956 426.295 340.984 389.09 343.353 343.011 347.066 307.544 354.254 291.771 357.467 272.497 362.259 240.821 366.577 206.591 371.238 194.821 370.263 191.003 363.865 188.265 359.257 191.135 354.307 202.326 328.029 206.512 318.207 213.753 301.224 217.334 291.429 224.154 272.84 225.734 258.595 228.288 235.608 229.947 220.626 232.606 195.48 229.683 162.935 228.656 151.481 225.47 123.07 213.964 87.8922 195.822 32.3605 173.73 11.2432 180.998 3.47566Z" fill="#32A2C9" fill-rule="nonzero" fill-opacity="1" transform="matrix(1.00309 0 0 1 471 821.105)"/></g></g></g><text fill="#32A2C9" fill-opacity="1" font-family="Georgia,Georgia_MSFontService,sans-serif" font-style="normal" font-variant="normal" font-weight="400" font-stretch="normal" font-size="275" text-anchor="start" direction="ltr" writing-mode="lr-tb" unicode-bidi="normal" text-decoration="none" transform="matrix(1 0 0 1 1059.22 1153)">Sailor Health</text></g></g></svg>